<?xml version="1.0" encoding="UTF-8" standalone="no"?> <svg id="Layer_1" data-name="Layer 1" xmlns="http://www.w3.org/2000/svg" viewBox="0 0 64 64"><defs><style>.cls-1{fill:#a8dadc;}.cls-2{fill:#a5a58d;}.cls-3{fill:#e9c46a;}</style></defs><path class="cls-1" d="M17.42,51.68a54.42,54.42,0,0,0,8-5.18h-7.1a2.51,2.51,0,0,1-2.5-2.5,2.5,2.5,0,0,1,2.5-2.5h5a1.52,1.52,0,0,0,1.5-1.5,1.5,1.5,0,0,0-1.5-1.5H8.38A24.6,24.6,0,0,0,17.42,51.68Z"/><path class="cls-2" d="M25.77,40a2.51,2.51,0,0,1-2.5,2.5h-5a1.5,1.5,0,0,0-1.5,1.5,1.52,1.52,0,0,0,1.5,1.5h8.39a117,117,0,0,0,9.94-8.9C43.4,29.79,49,22.66,51.68,17.42a24.62,24.62,0,0,0-3.26-3.58A7.42,7.42,0,0,1,42,17.5,7.5,7.5,0,0,1,34.5,10a7.62,7.62,0,0,1,.37-2.33A24.71,24.71,0,0,0,32,7.5a24.39,24.39,0,0,0-17.12,7H21a2.5,2.5,0,0,1,0,5H16a1.5,1.5,0,0,0,0,3H26a2.5,2.5,0,0,1,0,5H8v-.44A24.48,24.48,0,0,0,8.13,37.5H23.27A2.5,2.5,0,0,1,25.77,40Z"/><path class="cls-3" d="M56.4,7.6C54.48,5.69,50,6.4,44.05,9.53a26.06,26.06,0,0,1,2.62,1.63c3.41-1.64,5.74-1.89,6.89-.72s.92,3.48-.72,6.89A26.06,26.06,0,0,1,54.47,20C57.6,14,58.31,9.52,56.4,7.6Z"/><path class="cls-2" d="M52.3,25.5h3.32a23.72,23.72,0,0,0-1.22-3.4C53.76,23.22,53.07,24.35,52.3,25.5Z"/><path class="cls-1" d="M49.44,29.5H51A2.5,2.5,0,0,1,53.5,32,2.51,2.51,0,0,1,51,34.5H45.37c-.87,1-1.76,2-2.69,3H55.87a24.32,24.32,0,0,0,0-11H51.62C50.93,27.49,50.21,28.49,49.44,29.5Z"/><path class="cls-2" d="M52.05,33.06A1.47,1.47,0,0,0,52.5,32,1.5,1.5,0,0,0,51,30.5H48.69c-.78,1-1.61,2-2.45,3H51A1.46,1.46,0,0,0,52.05,33.06Z"/><path class="cls-2" d="M40.13,40.13a90.54,90.54,0,0,1-18,14.27A24.27,24.27,0,0,0,32,56.5a24.55,24.55,0,0,0,23.62-18H41.72C41.2,39.05,40.67,39.59,40.13,40.13Z"/><path class="cls-3" d="M12.48,54.29a2.72,2.72,0,0,1-2-.73c-1.17-1.16-.92-3.48.72-6.89a26.06,26.06,0,0,1-1.63-2.62C6.4,50,5.69,54.48,7.6,56.4S14,57.6,20,54.47a26.06,26.06,0,0,1-2.62-1.63A12,12,0,0,1,12.48,54.29Z"/><path class="cls-1" d="M27.5,25A1.5,1.5,0,0,0,26,23.5H16a2.5,2.5,0,0,1,0-5h5a1.5,1.5,0,0,0,0-3H14v-.1A24.45,24.45,0,0,0,8.13,26.5H26A1.5,1.5,0,0,0,27.5,25Z"/><path class="cls-1" d="M42,16.5a6.44,6.44,0,0,0,5.66-3.33A24.46,24.46,0,0,0,35.89,7.81,6.48,6.48,0,0,0,42,16.5Z"/><path class="cls-3" d="M53.89,21a26.22,26.22,0,0,0-1.56-2.67c-2.81,5.28-8.35,12.29-15,19s-13.68,12.22-19,15A26.22,26.22,0,0,0,21,53.89,89.67,89.67,0,0,0,39.43,39.43,89.67,89.67,0,0,0,53.89,21Z"/></svg>