<?xml version="1.0" encoding="UTF-8" standalone="no"?> <svg width="64" height="64" viewBox="0 0 64 64" fill="none" xmlns="http://www.w3.org/2000/svg">
<path d="M32 53C43.598 53 53 43.598 53 32C53 20.402 43.598 11 32 11C20.402 11 11 20.402 11 32C11 43.598 20.402 53 32 53Z" fill="#FCEA42"/>
<path d="M52 38.42C50.9205 41.7781 49.0125 44.8103 46.4522 47.2365C43.8918 49.6628 40.7615 51.405 37.3502 52.3024C33.9389 53.1998 30.3565 53.2235 26.9336 52.3712C23.5107 51.5189 20.3577 49.8182 17.7655 47.426C15.1733 45.0337 13.2254 42.0271 12.1017 38.6835C10.978 35.3399 10.7146 31.7671 11.3358 28.2949C11.957 24.8226 13.4429 21.5628 15.6563 18.8163C17.8696 16.0698 20.7391 13.925 24 12.58C22.7775 16.3924 22.6699 20.4747 23.6899 24.3461C24.7098 28.2176 26.8148 31.7169 29.7569 34.4321C32.6991 37.1473 36.3559 38.9652 40.2966 39.6717C44.2373 40.3782 48.2978 39.944 52 38.42V38.42Z" fill="#FDC741"/>
<path d="M42.607 21.393C39.6497 18.5748 37.3383 15.1492 35.832 11.352C34.3544 11.0766 32.8512 10.963 31.349 11.013C33.0685 16.0235 35.9581 20.5518 39.778 24.222C41.455 25.9029 43.283 27.426 45.239 28.772C45.4795 28.9346 45.7526 29.0429 46.0392 29.0894C46.3258 29.1358 46.619 29.1193 46.8986 29.041C47.1782 28.9627 47.4374 28.8244 47.6581 28.6358C47.8789 28.4473 48.0559 28.2129 48.177 27.949C48.3754 27.5237 48.4164 27.0417 48.2926 26.589C48.1688 26.1362 47.8883 25.7422 47.501 25.477C45.7465 24.2704 44.1081 22.9032 42.607 21.393V21.393Z" fill="#FF7373"/>
<path d="M22.829 13.1C21.5492 13.7188 20.3378 14.4702 19.215 15.342C22.135 21.8261 26.23 27.7136 31.293 32.707C36.2865 37.7702 42.1744 41.8649 48.659 44.784C49.5307 43.6616 50.2818 42.4506 50.9 41.171C44.599 38.5835 38.89 34.7416 34.12 29.879C29.2581 25.1091 25.4166 19.4005 22.829 13.1V13.1Z" fill="#FF7373"/>
<path d="M52.98 31.14C52.99 31.42 53 31.71 53 32C53.0013 34.1537 52.6742 36.295 52.03 38.35C52.9623 40.0181 53.7776 41.7489 54.47 43.53C56.46 48.73 56.27 52.21 55.24 53.24C54.4073 53.8089 53.4056 54.077 52.4 54C49.7 54 45.92 52.94 41.56 50.7C35.5984 47.5001 30.162 43.406 25.44 38.56C20.6106 33.8146 16.5216 28.3705 13.31 22.41C12.6453 21.1301 12.0511 19.8148 11.53 18.47C9.54001 13.27 9.73001 9.79001 10.76 8.76001C11.5927 8.19107 12.5945 7.923 13.6 8.00001C16.56 8.00001 20.8 9.27001 25.68 11.97C27.7248 11.3258 29.8562 10.9986 32 11C32.29 11 32.58 11.01 32.86 11.02C21.46 3.15001 10.45 0.590008 5.52001 5.52001C0.590008 10.45 3.15001 21.46 11.02 32.86C13.7442 36.7758 16.8167 40.4374 20.2 43.8C23.5627 47.1833 27.2242 50.2558 31.14 52.98C42.54 60.85 53.55 63.41 58.48 58.48C63.41 53.55 60.85 42.54 52.98 31.14Z" fill="#ADE8F4"/>
<path d="M33.64 50.48C29.7242 47.7558 26.0627 44.6833 22.7 41.3C19.3167 37.9373 16.2442 34.2758 13.52 30.36C6.32001 19.93 3.57001 9.83998 6.92001 4.41998C6.41112 4.72947 5.94111 5.09876 5.52001 5.51998C0.590008 10.45 3.15001 21.46 11.02 32.86C13.7442 36.7758 16.8167 40.4373 20.2 43.8C23.5627 47.1833 27.2242 50.2558 31.14 52.98C42.54 60.85 53.55 63.41 58.48 58.48C58.9012 58.0589 59.2705 57.5889 59.58 57.08C54.16 60.43 44.07 57.68 33.64 50.48Z" fill="#48CAE4"/>
<path d="M23.46 14.61C22.8786 17.3671 22.8514 20.2123 23.38 22.98C21.7846 20.5527 20.3932 17.9973 19.22 15.34C20.3415 14.4688 21.5514 13.718 22.83 13.1C23.03 13.6 23.24 14.11 23.46 14.61Z" fill="#EF5350"/>
<path d="M50.9 41.17C50.282 42.4486 49.5312 43.6586 48.66 44.78C45.376 43.3287 42.2468 41.5497 39.32 39.47C42.0279 40.0925 44.8328 40.1673 47.57 39.69C48.68 40.24 49.79 40.73 50.9 41.17Z" fill="#EF5350"/>
<path d="M36.242 26.343C36.149 26.4359 36.0753 26.5462 36.025 26.6676C35.9746 26.789 35.9487 26.9191 35.9487 27.0505C35.9487 27.1819 35.9746 27.3121 36.025 27.4335C36.0753 27.5549 36.149 27.6652 36.242 27.758C37.286 28.801 38.378 29.802 39.486 30.732C39.5862 30.8197 39.7028 30.8864 39.8291 30.9284C39.9554 30.9704 40.0888 30.9868 40.2215 30.9765C40.3542 30.9663 40.4835 30.9297 40.6018 30.8688C40.7202 30.8079 40.8252 30.7241 40.9107 30.6221C40.9962 30.5202 41.0606 30.4021 41.0999 30.275C41.1392 30.1479 41.1528 30.0142 41.1398 29.8817C41.1267 29.7493 41.0874 29.6208 41.0241 29.5037C40.9608 29.3866 40.8747 29.2834 40.771 29.2C39.708 28.307 38.659 27.345 37.656 26.342C37.4684 26.1547 37.214 26.0496 36.9488 26.0497C36.6836 26.0499 36.4294 26.1554 36.242 26.343Z" fill="#323232"/>
<path d="M34.642 42.02C34.8499 42.02 35.0526 41.9551 35.222 41.8345C35.3913 41.7139 35.5188 41.5435 35.5868 41.347C35.6548 41.1505 35.6598 40.9378 35.6013 40.7383C35.5427 40.5388 35.4234 40.3625 35.26 40.234C33.1248 38.5552 31.0918 36.7504 29.172 34.829C27.652 33.31 26.193 31.708 24.836 30.067C24.662 29.8799 24.4229 29.7665 24.1679 29.7501C23.9129 29.7337 23.6613 29.8156 23.4648 29.9788C23.2682 30.1421 23.1416 30.3745 23.111 30.6281C23.0803 30.8818 23.148 31.1376 23.3 31.343C24.7 33.031 26.2 34.68 27.763 36.243C29.7391 38.221 31.8319 40.079 34.03 41.807C34.2045 41.9444 34.4199 42.0194 34.642 42.02V42.02Z" fill="#323232"/>
<path d="M53.952 30.79C53.945 30.78 53.935 30.775 53.928 30.766C53.7685 27.5521 52.8986 24.4135 51.381 21.576C51.2553 21.3424 51.0419 21.1682 50.7878 21.0919C50.5337 21.0156 50.2597 21.0433 50.026 21.169C49.7923 21.2947 49.6182 21.5081 49.5419 21.7622C49.4655 22.0163 49.4933 22.2904 49.619 22.524C51.7931 26.6001 52.4885 31.3032 51.587 35.834C49.9084 35.1544 48.2829 34.3505 46.724 33.429C46.6108 33.3584 46.4846 33.3111 46.3529 33.29C46.2212 33.2689 46.0866 33.2744 45.957 33.3061C45.8274 33.3378 45.7055 33.3951 45.5984 33.4746C45.4913 33.5542 45.4012 33.6544 45.3334 33.7693C45.2656 33.8842 45.2215 34.0115 45.2036 34.1437C45.1858 34.2759 45.1946 34.4103 45.2295 34.5391C45.2644 34.6679 45.3247 34.7883 45.4069 34.8934C45.4891 34.9985 45.5915 35.0861 45.708 35.151C47.4357 36.1726 49.2413 37.0563 51.108 37.794C50.8954 38.4945 50.6447 39.1829 50.357 39.856C44.5453 37.3201 39.2735 33.6936 34.827 29.173C34.286 28.632 33.765 28.081 33.252 27.529C33.1626 27.4328 33.0551 27.3552 32.9356 27.3006C32.8162 27.2459 32.6872 27.2153 32.5559 27.2105C32.4247 27.2058 32.2938 27.2269 32.1707 27.2727C32.0476 27.3185 31.9347 27.3881 31.8385 27.4775C31.7423 27.567 31.6647 27.6745 31.61 27.7939C31.5554 27.9133 31.5248 28.0424 31.52 28.1736C31.5152 28.3049 31.5363 28.4358 31.5822 28.5589C31.628 28.682 31.6976 28.7948 31.787 28.891C32.315 29.459 32.854 30.028 33.413 30.591C38.0193 35.2657 43.4734 39.0209 49.484 41.656C49.1347 42.3004 48.7501 42.925 48.332 43.527C42.2532 40.6739 36.7246 36.7719 32 32C27.2285 27.2763 23.3271 21.7484 20.475 15.67C21.0711 15.2464 21.6901 14.8558 22.329 14.5C24.0772 18.5595 26.3714 22.3612 29.148 25.8C29.2287 25.906 29.3298 25.9948 29.4453 26.0612C29.5608 26.1275 29.6884 26.1701 29.8206 26.1865C29.9528 26.2029 30.087 26.1927 30.2152 26.1565C30.3434 26.1203 30.463 26.0589 30.5672 25.9758C30.6713 25.8927 30.7578 25.7897 30.8216 25.6727C30.8853 25.5557 30.9251 25.4272 30.9385 25.2947C30.9519 25.1621 30.9386 25.0283 30.8996 24.9009C30.8605 24.7735 30.7964 24.6553 30.711 24.553C28.0247 21.2287 25.8092 17.5501 24.127 13.621C24.8022 13.3281 25.4933 13.0734 26.197 12.858C27.1336 15.233 28.3005 17.5105 29.681 19.658C29.824 19.8815 30.0498 20.039 30.3089 20.0959C30.568 20.1528 30.8391 20.1045 31.0625 19.9615C31.2859 19.8186 31.4435 19.5927 31.5004 19.3336C31.5573 19.0746 31.509 18.8035 31.366 18.58C30.105 16.618 29.0303 14.5423 28.156 12.38C28.9821 12.2261 29.8171 12.1239 30.656 12.074C32.4698 16.9336 35.3434 21.328 39.068 24.938C40.7875 26.6625 42.6621 28.2251 44.668 29.606C45.0258 29.8508 45.4328 30.0145 45.8605 30.0856C46.2881 30.1568 46.7262 30.1337 47.144 30.018C47.6942 29.8668 48.1898 29.5617 48.5727 29.1387C48.9556 28.7157 49.21 28.1923 49.3059 27.6299C49.4018 27.0674 49.3354 26.4893 49.1144 25.9632C48.8933 25.4372 48.5269 24.9851 48.058 24.66C46.3548 23.4886 44.7643 22.1612 43.307 20.695C40.9558 18.3947 38.9985 15.7238 37.513 12.789C40.7737 13.718 43.7425 15.4658 46.137 17.866C46.6127 18.3425 47.0637 18.8432 47.488 19.366C47.6555 19.5717 47.8978 19.7024 48.1617 19.7294C48.4255 19.7564 48.6893 19.6775 48.895 19.51C49.1007 19.3425 49.2314 19.1002 49.2584 18.8364C49.2854 18.5725 49.2065 18.3087 49.039 18.103C48.572 17.5288 48.0754 16.9794 47.551 16.457C43.7164 12.6114 38.5853 10.3343 33.161 10.071C33.1264 10.0286 33.0883 9.98909 33.047 9.95303C20.993 1.72903 9.908 -0.282971 4.812 4.81303C-0.324998 9.95003 1.746 21.093 10.071 33.238C10.3522 38.6343 12.6222 43.7352 16.4431 47.5563C20.2639 51.3773 25.3647 53.6476 30.761 53.929C33.1424 55.5727 35.6373 57.0454 38.227 58.336C38.3646 58.4033 38.5159 58.4375 38.669 58.436C38.896 58.4377 39.1167 58.362 39.295 58.2216C39.4733 58.0811 39.5985 57.8842 39.65 57.6631C39.7016 57.4421 39.6764 57.2101 39.5786 57.0053C39.4808 56.8004 39.3163 56.635 39.112 56.536C36.5413 55.2543 34.0665 53.7885 31.707 52.15C27.8406 49.4611 24.2258 46.4274 20.907 43.086C17.5652 39.7677 14.5314 36.1528 11.843 32.286C4.1 21.082 1.848 10.607 6.227 6.22703C10.25 2.20403 19.488 3.80803 29.669 10.127C28.3559 10.2647 27.058 10.5208 25.791 10.892C21.163 8.38303 16.836 7.00003 13.6 7.00003C12.3284 6.90287 11.0656 7.27776 10.053 8.05303C8.48 9.62703 8.693 13.853 10.597 18.827C11.1306 20.2067 11.7395 21.5561 12.421 22.869C15.6822 28.9204 19.8323 34.4485 24.733 39.269C25.75 40.286 26.842 41.323 27.979 42.353C28.0756 42.4452 28.1897 42.5171 28.3145 42.5645C28.4393 42.6118 28.5724 42.6337 28.7058 42.6288C28.8392 42.624 28.9703 42.5924 29.0914 42.5361C29.2124 42.4797 29.3209 42.3997 29.4106 42.3007C29.5002 42.2018 29.5691 42.0859 29.6132 41.9598C29.6573 41.8338 29.6757 41.7002 29.6673 41.567C29.659 41.4337 29.6241 41.3035 29.5646 41.184C29.5051 41.0644 29.4223 40.958 29.321 40.871C28.208 39.863 27.141 38.849 26.147 37.855C21.5261 33.3011 17.5883 28.1026 14.456 22.421C14.8737 21.6535 15.3414 20.9143 15.856 20.208C16.9355 22.2663 18.129 24.2628 19.431 26.188C19.5798 26.4076 19.8097 26.5591 20.0702 26.6092C20.3307 26.6593 20.6004 26.6038 20.82 26.455C21.0396 26.3062 21.1911 26.0763 21.2412 25.8158C21.2912 25.5553 21.2358 25.2856 21.087 25.066C19.6676 22.9704 18.381 20.7878 17.235 18.531C17.441 18.304 17.643 18.074 17.86 17.857C18.183 17.534 18.527 17.241 18.867 16.944C21.8036 23.064 25.7685 28.6348 30.589 33.414C35.3695 38.2368 40.9424 42.2031 47.065 45.14C46.765 45.482 46.465 45.82 46.143 46.14C45.928 46.355 45.699 46.554 45.475 46.759C43.623 45.8234 41.8206 44.7927 40.075 43.671C39.8522 43.527 39.5814 43.4774 39.322 43.5331C39.0626 43.5888 38.836 43.7452 38.692 43.968C38.548 44.1908 38.4984 44.4617 38.5541 44.721C38.6098 44.9804 38.7662 45.207 38.989 45.351C40.561 46.366 42.178 47.281 43.804 48.134C43.0845 48.6558 42.3316 49.1298 41.55 49.553C38.2894 47.8052 35.2028 45.7506 32.332 43.417C32.1251 43.251 31.8608 43.174 31.5971 43.2028C31.3334 43.2317 31.092 43.3642 30.926 43.571C30.76 43.7779 30.6829 44.0422 30.7118 44.3059C30.7407 44.5696 30.8731 44.811 31.08 44.977C34.1895 47.5121 37.5465 49.7277 41.1 51.59C45.384 53.789 49.4 55 52.4 55C53.6716 55.0972 54.9344 54.7223 55.947 53.947C57.519 52.373 57.307 48.147 55.403 43.172C54.7373 41.456 53.9593 39.7857 53.074 38.172C53.4433 36.8972 53.6983 35.5921 53.836 34.272C60.19 44.48 61.807 53.734 57.773 57.772C54.91 60.634 49.55 60.756 42.679 58.115C42.4319 58.0223 42.1582 58.0309 41.9175 58.1391C41.6767 58.2473 41.4886 58.4463 41.3939 58.6927C41.2993 58.9391 41.3059 59.2129 41.4123 59.4544C41.5188 59.6959 41.7163 59.8856 41.962 59.982C44.9601 61.22 48.1578 61.9037 51.4 62C52.8204 62.0764 54.2417 61.8666 55.5795 61.3832C56.9173 60.8998 58.1444 60.1527 59.188 59.186C64.311 54.063 62.257 42.916 53.952 30.79ZM27.339 51.427C23.7487 50.5806 20.4653 48.7506 17.8572 46.1422C15.249 43.5339 13.4191 40.2503 12.573 36.66C14.7112 39.4196 17.0225 42.0405 19.493 44.507C21.9593 46.9773 24.5799 49.2887 27.339 51.427V51.427ZM41.9 22.1C43.4456 23.6531 45.1322 25.0591 46.938 26.3C47.13 26.4314 47.2689 26.6268 47.3297 26.8514C47.3906 27.0759 47.3694 27.3147 47.27 27.525C47.2086 27.659 47.1186 27.7779 47.0063 27.8732C46.894 27.9686 46.7621 28.0382 46.62 28.077C46.4827 28.1157 46.3386 28.1236 46.198 28.1003C46.0573 28.077 45.9234 28.0229 45.806 27.942C43.8998 26.6322 42.1189 25.1489 40.486 23.511C37.1424 20.264 34.5136 16.3546 32.768 12.033C33.5551 12.0626 34.3398 12.1384 35.118 12.26C36.7031 15.9577 39.0086 19.3027 41.9 22.1ZM16.443 16.443C15.2843 17.6027 14.2598 18.8891 13.389 20.278C13.046 19.535 12.73 18.808 12.464 18.113C10.464 12.895 10.943 9.99103 11.464 9.46703C12.1058 9.08197 12.8561 8.91792 13.6 9.00003C16.148 9.00003 19.524 9.99503 23.238 11.823C20.7025 12.9218 18.3972 14.4893 16.443 16.443V16.443ZM53.536 43.887C55.536 49.105 55.057 52.009 54.536 52.533C53.894 52.9176 53.1439 53.0816 52.4 53C49.3689 52.8075 46.4088 51.9998 43.7 50.626C47.4639 48.2777 50.4137 44.8279 52.149 40.745C52.677 41.815 53.145 42.868 53.536 43.887Z" fill="#323232"/>
</svg>
