<?xml version="1.0" encoding="UTF-8" standalone="no"?> <svg width="64" height="64" viewBox="0 0 64 64" fill="none" xmlns="http://www.w3.org/2000/svg">
<path d="M58.83 32.0001C58.83 29.4301 55.99 28.3201 53.24 27.2501C52.2732 26.9049 51.3338 26.4871 50.43 26.0001C50.8767 25.0258 51.4018 24.0894 52 23.2001C53.55 20.7601 55.16 18.2001 53.69 16.2001C52.22 14.2001 49.3 14.9201 46.48 15.6501C45.4624 15.9495 44.4224 16.1668 43.37 16.3001C43.1756 15.2705 43.0619 14.2273 43.03 13.1801C42.86 10.2601 42.68 7.24006 40.27 6.45006C37.86 5.66006 36.06 8.00006 34.24 10.2101C33.5676 11.0885 32.8179 11.9051 32 12.6501C31.1823 11.9049 30.4327 11.0884 29.76 10.2101C27.94 8.00006 26.06 5.71006 23.71 6.48006C21.36 7.25006 21.12 10.2901 20.94 13.2101C20.9081 14.2573 20.7944 15.3005 20.6 16.3301C19.5477 16.1967 18.5077 15.9793 17.49 15.6801C14.68 14.9501 11.77 14.1901 10.28 16.2301C8.79004 18.2701 10.41 20.7701 11.97 23.2301C12.5777 24.1084 13.1128 25.0348 13.57 26.0001C12.6663 26.4871 11.7269 26.9049 10.76 27.2501C8.00004 28.3201 5.17004 29.4301 5.17004 32.0001C5.17004 34.5701 8.00004 35.6801 10.76 36.7501C11.7269 37.0952 12.6663 37.513 13.57 38.0001C13.1234 38.9743 12.5983 39.9108 12 40.8001C10.45 43.2401 8.84004 45.8001 10.31 47.8001C11.78 49.8001 14.7 49.0801 17.52 48.3501C18.5377 48.0506 19.5777 47.8333 20.63 47.7001C20.8245 48.7296 20.9382 49.7728 20.97 50.8201C21.14 53.7401 21.32 56.7601 23.73 57.5501C26.14 58.3401 27.96 56.0301 29.78 53.8201C30.4447 52.932 31.1877 52.1054 32 51.3501C32.8178 52.0952 33.5674 52.9118 34.24 53.7901C35.81 55.7001 37.43 57.6701 39.37 57.6701C39.686 57.6693 39.9999 57.6187 40.3 57.5201C42.72 56.7401 42.89 53.7101 43.07 50.7901C43.102 49.7428 43.2156 48.6996 43.41 47.6701C44.4624 47.8034 45.5024 48.0208 46.52 48.3201C49.33 49.0501 52.24 49.8101 53.73 47.7701C55.22 45.7301 53.6 43.2301 52.04 40.7701C51.429 39.892 50.8905 38.9656 50.43 38.0001C51.3338 37.513 52.2732 37.0952 53.24 36.7501C56 35.6801 58.83 34.5701 58.83 32.0001Z" fill="url(#paint0_linear)"/>
<path d="M32 19.6301C29.5535 19.6301 27.1618 20.3556 25.1276 21.7148C23.0934 23.0741 21.5079 25.006 20.5716 27.2663C19.6354 29.5267 19.3904 32.0139 19.8677 34.4134C20.345 36.8129 21.5231 39.0171 23.2531 40.747C24.9831 42.477 27.1872 43.6551 29.5867 44.1324C31.9863 44.6097 34.4735 44.3648 36.7338 43.4285C38.9941 42.4923 40.9261 40.9068 42.2853 38.8725C43.6445 36.8383 44.37 34.4467 44.37 32.0001C44.3647 28.721 43.0598 25.5777 40.7411 23.2591C38.4224 20.9404 35.2791 19.6354 32 19.6301V19.6301Z" fill="url(#paint1_linear)"/>
<g opacity="0.3">
<path opacity="0.3" d="M12.54 47.7801C11.07 45.7801 12.67 43.2401 14.23 40.7801C14.8342 39.8979 15.366 38.9682 15.82 38.0001C14.9131 37.5126 13.9703 37.0947 13 36.7501C10.26 35.6801 7.42004 34.5701 7.42004 32.0001C7.42004 29.4301 10.26 28.3201 13.01 27.2501C13.9769 26.905 14.9163 26.4871 15.82 26.0001C15.3669 25.0283 14.8352 24.0952 14.23 23.2101C12.68 20.7701 11.07 18.2101 12.54 16.2101C12.7775 15.8868 13.0763 15.6135 13.4195 15.4059C13.7627 15.1983 14.1435 15.0604 14.54 15.0001C12.82 14.7501 11.29 14.9101 10.34 16.2101C8.87004 18.2101 10.47 20.7501 12.03 23.2101C12.618 24.0969 13.133 25.03 13.57 26.0001C12.6663 26.4871 11.7269 26.905 10.76 27.2501C8.00004 28.3201 5.17004 29.4301 5.17004 32.0001C5.17004 34.5701 8.00004 35.6801 10.76 36.7501C11.7269 37.0952 12.6663 37.5131 13.57 38.0001C13.1234 38.9744 12.5983 39.9108 12 40.8001C10.45 43.2401 8.84004 45.8001 10.31 47.8001C11.26 49.1001 12.79 49.2601 14.51 49.0101C13.7169 48.8759 13.0088 48.4339 12.54 47.7801V47.7801Z" fill="black"/>
</g>
<path opacity="0.4" d="M23.3801 32C23.3864 29.047 24.4481 26.1935 26.3735 23.9545C28.2989 21.7154 30.9613 20.2384 33.8801 19.79C32.1129 19.5076 30.3056 19.612 28.5827 20.0959C26.8598 20.5799 25.2625 21.4319 23.9009 22.5932C22.5393 23.7545 21.4458 25.1974 20.6961 26.8223C19.9463 28.4472 19.558 30.2155 19.558 32.005C19.558 33.7946 19.9463 35.5628 20.6961 37.1877C21.4458 38.8127 22.5393 40.2555 23.9009 41.4168C25.2625 42.5781 26.8598 43.4301 28.5827 43.9141C30.3056 44.398 32.1129 44.5024 33.8801 44.22C30.9596 43.7713 28.2959 42.2929 26.3702 40.0518C24.4446 37.8107 23.384 34.9548 23.3801 32V32Z" fill="black"/>
<defs>
<linearGradient id="paint0_linear" x1="5.17004" y1="32.0001" x2="58.83" y2="32.0001" gradientUnits="userSpaceOnUse">
<stop stop-color="#FFEB1C"/>
<stop offset="0.32" stop-color="#FED319"/>
<stop offset="0.99" stop-color="#FC9612"/>
<stop offset="1" stop-color="#FC9512"/>
</linearGradient>
<linearGradient id="paint1_linear" x1="505.276" y1="811.31" x2="1117.34" y2="811.31" gradientUnits="userSpaceOnUse">
<stop stop-color="#FFEB1C"/>
<stop offset="0.32" stop-color="#FED319"/>
<stop offset="0.99" stop-color="#FC9612"/>
<stop offset="1" stop-color="#FC9512"/>
</linearGradient>
</defs>
</svg>
